<svg xmlns="http://www.w3.org/2000/svg" width="32" height="32" viewBox="0 0 32 32">
  <defs>
    <linearGradient id="gradient" x1="0%" y1="0%" x2="100%" y2="100%">
      <stop offset="0%" style="stop-color:#3B7EA1;stop-opacity:1" />
      <stop offset="100%" style="stop-color:#FDB515;stop-opacity:1" />
    </linearGradient>
  </defs>
  <g fill="url(#gradient)">
    <!-- Outer ring -->
    <circle cx="16" cy="16" r="14" fill="none" stroke="url(#gradient)" stroke-width="4"/>
    <!-- Inner circle -->
    <circle cx="16" cy="16" r="6" fill="url(#gradient)"/>
    <!-- Chart segments -->
    <path d="M 16,2 A 14,14 0 0,1 29.9,16 L 22,16 A 6,6 0 0,0 16,10 Z" fill="url(#gradient)" opacity="0.8"/>
    <path d="M 29.9,16 A 14,14 0 0,1 16,30 L 16,22 A 6,6 0 0,0 22,16 Z" fill="url(#gradient)" opacity="0.6"/>
    <path d="M 16,30 A 14,14 0 0,1 2.1,16 L 10,16 A 6,6 0 0,0 16,22 Z" fill="url(#gradient)" opacity="0.4"/>
    <path d="M 2.1,16 A 14,14 0 0,1 16,2 L 16,10 A 6,6 0 0,0 10,16 Z" fill="url(#gradient)" opacity="0.2"/>
  </g>
</svg>